<?xml version="1.0" encoding="UTF-8" standalone="no"?>
<!-- Created with Inkscape (http://www.inkscape.org/) -->

<svg
   xmlns:dc="http://purl.org/dc/elements/1.1/"
   xmlns:cc="http://creativecommons.org/ns#"
   xmlns:rdf="http://www.w3.org/1999/02/22-rdf-syntax-ns#"
   xmlns:svg="http://www.w3.org/2000/svg"
   xmlns="http://www.w3.org/2000/svg"
   xmlns:sodipodi="http://sodipodi.sourceforge.net/DTD/sodipodi-0.dtd"
   xmlns:inkscape="http://www.inkscape.org/namespaces/inkscape"
   width="850"
   height="350"
   id="svg2"
   version="1.1"
   inkscape:version="0.92.3 (2405546, 2018-03-11)"
   sodipodi:docname="lxqt_logo_and_name.svg"
   inkscape:export-filename="./lxqt_logo_and_name.png"
   inkscape:export-xdpi="90"
   inkscape:export-ydpi="90">
  <title
     id="title4078">LXQt logo</title>
  <metadata
     id="metadata7">
    <rdf:RDF>
      <cc:Work
         rdf:about="">
        <dc:format>image/svg+xml</dc:format>
        <dc:type
           rdf:resource="http://purl.org/dc/dcmitype/StillImage" />
        <dc:title>LXQt logo</dc:title>
        <dc:creator>
          <cc:Agent>
            <dc:title>Giacomo Barazzetti</dc:title>
          </cc:Agent>
        </dc:creator>
        <cc:license
           rdf:resource="http://creativecommons.org/licenses/by-sa/3.0/" />
      </cc:Work>
      <cc:License
         rdf:about="http://creativecommons.org/licenses/by-sa/3.0/">
        <cc:permits
           rdf:resource="http://creativecommons.org/ns#Reproduction" />
        <cc:permits
           rdf:resource="http://creativecommons.org/ns#Distribution" />
        <cc:requires
           rdf:resource="http://creativecommons.org/ns#Notice" />
        <cc:requires
           rdf:resource="http://creativecommons.org/ns#Attribution" />
        <cc:permits
           rdf:resource="http://creativecommons.org/ns#DerivativeWorks" />
        <cc:requires
           rdf:resource="http://creativecommons.org/ns#ShareAlike" />
      </cc:License>
    </rdf:RDF>
  </metadata>
  <g
     transform="translate(-559.98853,-445.48535)"
     inkscape:label="Logo"
     id="layer2"
     inkscape:groupmode="layer">
    <g
       id="Logo"
       inkscape:label="#logo">
      <path
         id="right"
         transform="translate(559.98853,445.48535)"
         d="M 206.51367 49.488281 C 199.39869 49.52422 192.29307 51.316722 186.0332 54.703125 C 178.32875 58.871005 171.94111 65.433067 167.98438 73.248047 C 164.02763 81.063027 162.5176 90.096627 163.71875 98.773438 C 164.9199 107.45025 168.82686 115.73349 174.75781 122.17969 C 171.67624 116.44743 170.21412 109.85496 170.58398 103.35742 C 170.95385 96.859872 173.15502 90.476389 176.86719 85.130859 C 180.57936 79.785329 185.79092 75.493113 191.75 72.876953 C 197.70908 70.260783 204.39812 69.327701 210.8457 70.212891 C 219.87966 71.453171 228.36013 76.331865 233.97656 83.515625 L 323.97656 83.515625 L 245.01172 72.630859 C 238.4425 60.156379 225.44437 51.298724 211.43164 49.746094 C 209.79922 49.565218 208.15559 49.479988 206.51367 49.488281 z M 627.4707 108.51562 C 615.8748 108.51579 605.30642 110.49427 595.76562 114.45312 C 586.22473 118.41228 578.04014 123.98518 571.21484 131.16992 C 564.38934 138.28161 559.10618 146.78617 555.36328 156.68359 C 551.62028 166.50792 549.74805 177.32135 549.74805 189.125 C 549.74805 200.9288 551.62028 211.77829 555.36328 221.67578 C 559.10618 231.50005 564.38934 239.96854 571.21484 247.08008 C 578.04014 254.19166 586.22473 259.72655 595.76562 263.68555 C 605.30642 267.57126 615.8748 269.51562 627.4707 269.51562 C 632.3879 269.51562 637.08375 269.14722 641.56055 268.41406 C 646.11075 267.68091 650.47861 266.65561 654.66211 265.33594 L 682.40234 295.46875 C 684.09024 297.30159 685.96268 298.68088 688.01758 299.41406 C 690.07248 300.14719 692.4203 300.51559 695.0625 300.51562 L 712.67773 300.51562 L 672.16406 256.75781 C 677.30136 253.31201 681.92526 249.24297 686.03516 244.55078 C 690.14486 239.85864 693.63174 234.65417 696.49414 228.93555 C 699.35624 223.1437 701.52038 216.91195 702.98828 210.24023 C 704.52938 203.56861 705.30068 196.52991 705.30078 189.125 C 705.30068 177.32135 703.4302 166.50792 699.6875 156.68359 C 695.9443 146.78617 690.65918 138.28161 683.83398 131.16992 C 677.00858 123.98518 668.78793 118.41228 659.17383 114.45312 C 649.63283 110.49426 639.0664 108.51579 627.4707 108.51562 z M 746.80469 119.51562 C 745.54349 119.51578 744.50555 119.88594 743.68945 120.62695 C 742.87335 121.29415 742.39059 122.18332 742.24219 123.29492 L 737.67969 157.11719 L 719.01172 159.45117 L 719.01172 167.3457 C 719.01172 168.82813 719.42023 169.93862 720.23633 170.67969 C 721.05243 171.34683 722.05303 171.68174 723.24023 171.68164 L 737.01172 171.68164 L 737.01172 240.60938 C 737.01172 249.94807 739.38627 257.10061 744.13477 262.06641 C 748.95727 267.03222 755.81946 269.51562 764.72266 269.51562 C 769.84196 269.51563 774.81207 268.6245 779.63477 266.8457 C 784.45727 264.99279 788.57528 262.47413 791.98828 259.28711 L 786.20117 249.83594 C 785.38497 248.57598 784.45852 247.94729 783.41992 247.94727 C 782.82622 247.94729 782.12079 248.24303 781.30469 248.83594 C 780.56269 249.35477 779.63634 249.94819 778.52344 250.61523 C 777.41054 251.28229 776.07362 251.91294 774.51562 252.50586 C 773.03162 253.02468 771.25123 253.28322 769.17383 253.2832 C 765.53833 253.28322 762.57148 252.13357 760.27148 249.83594 C 757.97148 247.53835 757.01172 244.01887 757.01172 239.27539 L 757.01172 171.68164 L 789.01172 171.68164 L 789.01172 157.51562 L 757.01172 157.33984 L 757.01172 119.51562 L 746.80469 119.51562 z M 627.4707 126.99023 C 635.984 126.99037 643.68899 128.42015 650.58789 131.2793 C 657.48659 134.13873 663.35727 138.24383 668.20117 143.5957 C 673.04487 148.87451 676.78944 155.36257 679.43164 163.06055 C 682.07364 170.75874 683.39433 179.44749 683.39453 189.125 C 683.39433 198.80266 682.07364 207.48948 679.43164 215.1875 C 676.78944 222.81231 673.04487 229.30036 668.20117 234.65234 C 663.35727 239.93106 657.48659 244.00012 650.58789 246.85938 C 643.68899 249.64536 635.984 251.03908 627.4707 251.03906 C 619.0307 251.03908 611.35964 249.64536 604.46094 246.85938 C 597.56214 244.00012 591.65548 239.93106 586.73828 234.65234 C 581.89448 229.30036 578.15167 222.81231 575.50977 215.1875 C 572.86747 207.48948 571.54688 198.80266 571.54688 189.125 C 571.54687 179.44749 572.86747 170.75874 575.50977 163.06055 C 578.15167 155.36257 581.89448 148.87451 586.73828 143.5957 C 591.65548 138.24383 597.56214 134.13873 604.46094 131.2793 C 611.35964 128.42015 619.0307 126.99037 627.4707 126.99023 z "
         style="fill:#1a1a1a;fill-opacity:1;stroke:none;stroke-width:0.99848932" />
      <path
         id="left"
         transform="translate(559.98853,445.48535)"
         d="M 64.996094 64.869141 C 59.211554 76.296701 56.921819 89.464688 58.511719 102.17383 C 60.101609 114.88297 65.563005 127.082 73.984375 136.73242 C 78.695613 142.13124 84.340382 146.68771 90.556641 150.24805 L 72.953125 145.29883 C 72.103555 155.22571 74.056604 165.37747 78.527344 174.28125 C 82.998074 183.18503 89.972356 190.81465 98.441406 196.0625 C 111.01339 203.85273 126.84469 206.1797 141.12695 202.33789 C 126.82013 202.43976 112.64395 195.33634 104.16211 183.81445 C 99.376149 177.31311 96.367319 169.5171 95.542969 161.48633 L 179.15039 175.16016 L 111.55273 156.15234 C 106.14645 153.52672 101.2066 149.93669 97.083984 145.5625 C 91.382144 139.51271 87.239819 132.00456 85.162109 123.95508 C 82.783129 114.73842 83.135739 104.83537 86.162109 95.810547 L 185.85938 151.70312 L 64.996094 64.869141 z M 227.58203 108.51367 C 225.609 112.60575 224.23845 116.98802 223.52539 121.47461 C 221.31382 135.38986 225.45209 149.44514 229.57617 162.91797 C 233.70025 176.39081 237.90408 190.41211 235.82422 204.34766 C 234.27028 214.75942 229.18945 224.5038 222.08008 232.26758 C 214.97072 240.03137 205.89649 245.86751 196.14844 249.8418 C 180.08516 256.39082 162.02152 257.92935 145.08203 254.19141 L 145.08203 300.51562 L 159.01172 267.44727 C 177.06509 271.56457 196.39183 269.89917 213.47461 262.75391 C 225.70378 257.63879 236.86338 249.67514 244.91211 239.14258 C 252.96084 228.61001 257.7635 215.44678 257.42383 202.19531 C 257.01559 186.2687 249.48971 171.50874 242.20508 157.33984 C 234.92044 143.17094 227.53993 128.29883 227.45898 112.36719 C 227.45198 111.08211 227.49227 109.79563 227.58203 108.51367 z M 302.01172 108.51367 L 302.01172 269.51562 L 394.01172 269.51562 L 394.01172 251.51562 L 324.01172 251.51562 L 324.01172 108.51367 L 302.01172 108.51367 z M 410.28906 108.51367 L 463.51758 186.86914 L 408.03906 269.51562 L 428.29492 269.51562 C 429.87035 269.51562 431.07121 269.19548 431.89648 268.37109 C 432.79674 267.47177 433.58452 266.49648 434.25977 265.44727 L 476.3457 202.38281 C 477.1709 200.95894 477.84589 199.45866 478.37109 197.88477 L 521.58398 265.44727 C 522.18398 266.49648 522.93358 267.47177 523.83398 268.37109 C 524.80908 269.19548 526.12274 269.51562 527.77344 269.51562 L 549.37891 269.51562 L 494.12695 185.85742 L 547.57812 108.51367 L 526.75977 108.51367 C 525.63427 108.51383 524.65908 108.853 523.83398 109.52734 C 523.08358 110.12705 522.37237 110.95095 521.69727 112 L 481.97266 170.90625 C 480.92236 172.77994 480.13448 174.50244 479.60938 176.07617 L 437.52148 111.55078 C 436.92127 110.57666 436.24628 109.82555 435.49609 109.30078 C 434.7458 108.77633 433.58324 108.51383 432.00781 108.51367 L 410.28906 108.51367 z "
         style="fill:#0192d3;fill-opacity:1;stroke:none;stroke-width:0.99848932" />
    </g>
  </g>
</svg>
